# xmcd CD database file
#
# Track frame offsets:
#	150
#	12573
#	28982
#	41487
#	58524
#	72536
#	84488
#	102972
#	116883
#	134909
#	151470
#	162594
#	175018
#	187343
#
# Disc length: 2649 seconds
#
# Revision: 1
# Processed by: cddbd v1.5.2PL0 Copyright (c) Steve Scherf et al.
# Submitted via: CDex 1.79
#
DISCID=d30a570e
DTITLE=Teri Joyce - Kitchen Radio
DYEAR=2009
DGENRE=Country
TTITLE0=Don't Look For Me 'Til You See Me Comin'
TTITLE1=Kitchen Radio
TTITLE2=Something Blue
TTITLE3=The Party After the Party
TTITLE4=Austin, Texas, U.S.A.
TTITLE5=Let's Stop Singin' This Ol' Song
TTITLE6=Bluebonnets For My Baby
TTITLE7=Wearing Out My Welcome
TTITLE8=Belly Up
TTITLE9=Fifteen Minutes Of Shame
TTITLE10=I Can't Help Myself
TTITLE11=Everybody's Darlin'
TTITLE12=Just Because I Have A Heart To Break
TTITLE13=It Can't Be True
EXTD=YEAR: 2009
EXTT0=
EXTT1=
EXTT2=
EXTT3=
EXTT4=
EXTT5=
EXTT6=
EXTT7=
EXTT8=
EXTT9=
EXTT10=
EXTT11=
EXTT12=
EXTT13=
PLAYORDER=
